<?xml version="1.0" encoding="utf-8"?>
<!-- Generator: Adobe Illustrator 25.4.4, SVG Export Plug-In . SVG Version: 6.00 Build 0)  -->
<svg version="1.1" id="Layer_1" xmlns="http://www.w3.org/2000/svg" xmlns:xlink="http://www.w3.org/1999/xlink" x="0px" y="0px"
	 viewBox="0 0 269.2 88.8" style="enable-background:new 0 0 269.2 88.8;" xml:space="preserve">
<style type="text/css">
	.st0{fill:#9BBCFB;}
	.st1{enable-background:new    ;}
	.st2{fill:#445983;}
</style>
<polygon class="st0" points="8.6,9.7 31,9.7 25.5,59.1 14.3,59.1 "/>
<ellipse class="st0" cx="19.8" cy="73.1" rx="9.1" ry="9.2"/>
<polygon class="st0" points="48,9.7 70.4,9.7 64.9,59.1 53.8,59.1 "/>
<ellipse class="st0" cx="59.2" cy="73.1" rx="9.1" ry="9.2"/>
<g class="st1">
	<path class="st2" d="M104.5,23.1h10.8c6.8,0,10.2,3.8,10.2,10.8v22.2c0,7-3.4,10.8-10.2,10.8h-10.8V23.1z M111.3,29.4v31.4h3.8
		c2.2,0,3.5-1.1,3.5-4.3V33.7c0-3.1-1.3-4.3-3.5-4.3H111.3z"/>
	<path class="st2" d="M133,33.7c0-7,3.7-11,10.4-11c6.7,0,10.4,4,10.4,11v22.8c0,7-3.7,11-10.4,11c-6.7,0-10.4-4-10.4-11V33.7z
		 M139.8,56.9c0,3.1,1.4,4.3,3.5,4.3c2.2,0,3.5-1.2,3.5-4.3V33.2c0-3.1-1.4-4.3-3.5-4.3c-2.2,0-3.5,1.2-3.5,4.3V56.9z"/>
	<path class="st2" d="M168.4,23.1V57c0,3.1,1.4,4.3,3.5,4.3c2.2,0,3.5-1.1,3.5-4.3V23.1h6.5v33.4c0,7-3.5,11-10.2,11
		s-10.2-4-10.2-11V23.1H168.4z"/>
	<path class="st2" d="M210.7,33.2v1.6c0,4.5-1.4,7.3-4.4,8.8v0.1c3.7,1.4,5.1,4.7,5.1,9.3v3.6c0,6.8-3.5,10.4-10.4,10.4h-10.7V23.1
		h10.3C207.7,23.1,210.7,26.5,210.7,33.2z M197.1,29.4V41h2.7c2.5,0,4.1-1.1,4.1-4.6v-2.4c0-3.1-1.1-4.5-3.5-4.5H197.1z M197.1,47.3
		v13.5h3.9c2.3,0,3.5-1.1,3.5-4.3v-3.8c0-4.1-1.3-5.3-4.4-5.3H197.1z"/>
	<path class="st2" d="M219.2,23.1h6.8v37.6h11.2V67h-18.1V23.1z"/>
	<path class="st2" d="M250.8,41.6h9.4v6.3h-9.4v12.9h11.8V67H244V23.1h18.6v6.3h-11.8V41.6z"/>
</g>
</svg>
