<svg xmlns="http://www.w3.org/2000/svg" xmlns:xlink="http://www.w3.org/1999/xlink" viewBox="0 0 927.26 578.06"><defs><style>.cls-1{isolation:isolate;}.cls-2{mix-blend-mode:overlay;}.cls-3,.cls-4{fill:#aebcf8;}.cls-10,.cls-11,.cls-12,.cls-13,.cls-14,.cls-15,.cls-16,.cls-17,.cls-3,.cls-4,.cls-5,.cls-6,.cls-7{stroke-miterlimit:10;}.cls-3,.cls-4,.cls-5,.cls-6,.cls-7{stroke-width:6px;}.cls-3{stroke:url(#linear-gradient);}.cls-4{stroke:url(#linear-gradient-2);}.cls-5,.cls-7{fill:#babaf9;}.cls-5{stroke:url(#linear-gradient-3);}.cls-10,.cls-11,.cls-12,.cls-13,.cls-14,.cls-15,.cls-16,.cls-17,.cls-6{fill:none;}.cls-6{stroke:url(#linear-gradient-4);}.cls-7{stroke:url(#linear-gradient-5);}.cls-8{fill:#678cf1;}.cls-9{fill:#fff;}.cls-10{stroke:#fff;stroke-width:7px;}.cls-11,.cls-12,.cls-13,.cls-14,.cls-15,.cls-16,.cls-17{stroke-width:10px;}.cls-11{stroke:url(#linear-gradient-6);}.cls-12{stroke:url(#New_Gradient_Swatch_1);}.cls-13{stroke:url(#New_Gradient_Swatch_1-2);}.cls-14{stroke:url(#New_Gradient_Swatch_1-3);}.cls-15{stroke:url(#New_Gradient_Swatch_1-4);}.cls-16{stroke:url(#New_Gradient_Swatch_1-5);}.cls-17{stroke:url(#New_Gradient_Swatch_1-6);}.cls-18{fill:#414042;}</style><linearGradient id="linear-gradient" x1="361.81" y1="164.13" x2="407.45" y2="118.48" gradientUnits="userSpaceOnUse"><stop offset="0" stop-color="#fff"/><stop offset="0.25" stop-color="#a1f8f4"/><stop offset="0.38" stop-color="#a2e9fa"/><stop offset="0.5" stop-color="#9bbcfb"/><stop offset="0.63" stop-color="#cfccfe"/><stop offset="0.75" stop-color="#f0cbf7"/><stop offset="1" stop-color="#fff"/></linearGradient><linearGradient id="linear-gradient-2" x1="519.81" y1="164.13" x2="565.46" y2="118.48" xlink:href="#linear-gradient"/><linearGradient id="linear-gradient-3" x1="412.43" y1="194.81" x2="514.83" y2="92.42" xlink:href="#linear-gradient"/><linearGradient id="linear-gradient-4" x1="422.7" y1="206.69" x2="504.57" y2="124.82" xlink:href="#linear-gradient"/><linearGradient id="linear-gradient-5" x1="405.74" y1="146.49" x2="521.52" y2="146.49" xlink:href="#linear-gradient"/><linearGradient id="linear-gradient-6" x1="327.32" y1="147.43" x2="599.94" y2="147.43" xlink:href="#linear-gradient"/><linearGradient id="New_Gradient_Swatch_1" x1="-307.59" y1="167.62" x2="-151.96" y2="167.62" gradientTransform="translate(694.91 291.35)" xlink:href="#linear-gradient"/><linearGradient id="New_Gradient_Swatch_1-2" x1="202.75" y1="147.43" x2="332.32" y2="147.43" xlink:href="#linear-gradient"/><linearGradient id="New_Gradient_Swatch_1-3" x1="1341.26" y1="-584.42" x2="1422.46" y2="-584.42" gradientTransform="translate(-119.29 -1061.02) rotate(90)" xlink:href="#linear-gradient"/><linearGradient id="New_Gradient_Swatch_1-4" x1="594.94" y1="147.43" x2="724.51" y2="147.43" xlink:href="#linear-gradient"/><linearGradient id="New_Gradient_Swatch_1-5" x1="4.03" y1="147.43" x2="207.75" y2="147.43" xlink:href="#linear-gradient"/><linearGradient id="New_Gradient_Swatch_1-6" x1="719.51" y1="147.43" x2="923.23" y2="147.43" xlink:href="#linear-gradient"/></defs><g class="cls-1"><g id="Layer_1" data-name="Layer 1"><g class="cls-2"><circle class="cls-3" cx="384.63" cy="141.3" r="29.28"/><circle class="cls-4" cx="542.63" cy="141.3" r="29.28"/><circle class="cls-5" cx="463.63" cy="143.62" r="69.4"/><circle class="cls-6" cx="463.63" cy="165.75" r="54.89"/><circle class="cls-7" cx="463.63" cy="146.49" r="54.89"/><path class="cls-8" d="M463.63,217.64A52,52,0,0,0,515,173.16a57.84,57.84,0,0,1-102.7,0A52,52,0,0,0,463.63,217.64Z"/><path class="cls-8" d="M510.62,168.39c-11.72-4.63-28.43-7.52-47-7.52s-35.27,2.89-47,7.52a51.84,51.84,0,0,0,94,0Z"/><polygon class="cls-9" points="439.52 121.52 456.97 121.52 452.69 159.7 443.96 159.7 439.52 121.52"/><circle class="cls-9" cx="448.24" cy="170.56" r="7.08"/><polygon class="cls-9" points="470.3 121.52 487.74 121.52 483.46 159.7 474.74 159.7 470.3 121.52"/><circle class="cls-9" cx="479.02" cy="170.56" r="7.08"/><line class="cls-10" x1="434.82" y1="117.54" x2="457.78" y2="106.51"/><line class="cls-10" x1="492.44" y1="106.51" x2="469.48" y2="117.54"/></g><rect class="cls-11" x="332.32" y="16.12" width="262.63" height="262.63"/><rect class="cls-12" x="392.32" y="386.15" width="145.63" height="145.63" transform="translate(-188.3 463.33) rotate(-45)"/><line class="cls-13" x1="332.32" y1="147.43" x2="202.75" y2="147.43"/><line class="cls-14" x1="465.13" y1="361.44" x2="465.13" y2="280.24"/><line class="cls-15" x1="724.51" y1="147.43" x2="594.94" y2="147.43"/><circle class="cls-16" cx="105.89" cy="147.43" r="96.86"/><circle class="cls-17" cx="821.37" cy="147.43" r="96.86"/><path class="cls-18" d="M48.05,134.91H36.17v-2.17H62.34v2.17H50.46v30.84H48.05Z"/><path class="cls-18" d="M68.26,164.34a11.59,11.59,0,0,1-4.41-4.46,13.74,13.74,0,0,1,0-12.87,11.53,11.53,0,0,1,4.41-4.46,13.18,13.18,0,0,1,12.59,0A11.53,11.53,0,0,1,85.26,147a13.67,13.67,0,0,1,0,12.87,11.59,11.59,0,0,1-4.41,4.46,13.18,13.18,0,0,1-12.59,0Zm11.37-1.84a9.47,9.47,0,0,0,3.53-3.68,11.76,11.76,0,0,0,0-10.75,9.47,9.47,0,0,0-3.53-3.68,10.4,10.4,0,0,0-10.14,0A9.5,9.5,0,0,0,66,148.07a11.76,11.76,0,0,0,0,10.75,9.5,9.5,0,0,0,3.54,3.68,10.4,10.4,0,0,0,10.14,0Z"/><path class="cls-18" d="M103,152.59l-6.42,5.85v7.31H94.17v-35h2.36v24.76l15.75-14.38h3l-10.61,10,11.65,14.66h-2.92Z"/><path class="cls-18" d="M141.71,154H120.54a10.3,10.3,0,0,0,1.46,5.12,9.27,9.27,0,0,0,3.7,3.46,11.12,11.12,0,0,0,5.26,1.23,11.25,11.25,0,0,0,4.45-.87,8.75,8.75,0,0,0,3.42-2.57l1.37,1.55a10.47,10.47,0,0,1-4,3,14,14,0,0,1-11.81-.56,11.66,11.66,0,0,1-4.51-4.44,12.73,12.73,0,0,1-1.62-6.46,13.37,13.37,0,0,1,1.53-6.43,11.27,11.27,0,0,1,4.22-4.46,12.21,12.21,0,0,1,12,0,11.2,11.2,0,0,1,4.19,4.41,13.13,13.13,0,0,1,1.54,6.41Zm-16.36-9.83a8.73,8.73,0,0,0-3.33,3.25,10.7,10.7,0,0,0-1.44,4.74h18.87a10,10,0,0,0-1.42-4.72,9.23,9.23,0,0,0-3.35-3.25,9.89,9.89,0,0,0-9.33,0Z"/><path class="cls-18" d="M168.4,143.63c1.79,1.8,2.69,4.37,2.69,7.74v14.38h-2.36V151.56q0-4.16-2.1-6.32a7.77,7.77,0,0,0-5.87-2.17,9.06,9.06,0,0,0-6.84,2.59,9.67,9.67,0,0,0-2.5,7v13.11h-2.35V141.14h2.26v5.32a9.34,9.34,0,0,1,3.8-4.05,11.63,11.63,0,0,1,6-1.46A9.88,9.88,0,0,1,168.4,143.63Z"/><path class="cls-18" d="M751.13,162.63a16,16,0,0,1-6.13-6,17.57,17.57,0,0,1,0-17.17,16.1,16.1,0,0,1,6.13-6,17.71,17.71,0,0,1,8.75-2.16,18.3,18.3,0,0,1,6.6,1.15,13.57,13.57,0,0,1,5.14,3.42l-1.51,1.56A13.82,13.82,0,0,0,760,133.53a15.24,15.24,0,0,0-7.54,1.89,13.76,13.76,0,0,0-5.33,5.21,15.25,15.25,0,0,0,0,14.85,13.69,13.69,0,0,0,5.33,5.21,15.24,15.24,0,0,0,7.54,1.89,13.82,13.82,0,0,0,10.14-4l1.51,1.56a13.89,13.89,0,0,1-5.16,3.44,18.18,18.18,0,0,1-6.58,1.18A17.71,17.71,0,0,1,751.13,162.63Z"/><path class="cls-18" d="M793.83,142.09c1.64,1.56,2.45,3.84,2.45,6.86v15.61H794v-4.38a8.17,8.17,0,0,1-3.44,3.37,11.44,11.44,0,0,1-5.42,1.2,10,10,0,0,1-6.49-1.93,6.69,6.69,0,0,1-.19-10.07c1.47-1.27,3.8-1.91,7-1.91h8.44v-2a6.92,6.92,0,0,0-1.87-5.24,7.56,7.56,0,0,0-5.44-1.79,13,13,0,0,0-4.69.85,11.87,11.87,0,0,0-3.8,2.26L777,143.25a13.07,13.07,0,0,1,4.43-2.57,16,16,0,0,1,5.43-.92C789.86,139.76,792.2,140.53,793.83,142.09ZM790.7,161.4a8.63,8.63,0,0,0,3.23-4.1v-4.62h-8.4q-3.63,0-5.25,1.32a4.41,4.41,0,0,0-1.63,3.63,4.55,4.55,0,0,0,1.79,3.8,8.11,8.11,0,0,0,5,1.39A9.29,9.29,0,0,0,790.7,161.4Z"/><path class="cls-18" d="M824.58,141.36a11.53,11.53,0,0,1,4.36,4.43,13.07,13.07,0,0,1,1.58,6.46,13.21,13.21,0,0,1-1.58,6.49,11.26,11.26,0,0,1-4.36,4.43,12.43,12.43,0,0,1-6.22,1.58,11.56,11.56,0,0,1-5.9-1.53,10.6,10.6,0,0,1-4.1-4.27v14.76H806V140h2.26v5.8a10.72,10.72,0,0,1,4.13-4.41,11.39,11.39,0,0,1,6-1.58A12.24,12.24,0,0,1,824.58,141.36Zm-1.27,19.95a9.47,9.47,0,0,0,3.56-3.68,11.84,11.84,0,0,0,0-10.75,9.47,9.47,0,0,0-3.56-3.68,9.94,9.94,0,0,0-5.1-1.32,9.83,9.83,0,0,0-5.07,1.32,9.47,9.47,0,0,0-3.53,3.68,11.76,11.76,0,0,0,0,10.75,9.47,9.47,0,0,0,3.53,3.68,9.83,9.83,0,0,0,5.07,1.32A9.94,9.94,0,0,0,823.31,161.31Z"/><path class="cls-18" d="M837.64,133.41a1.77,1.77,0,0,1-.56-1.34,1.91,1.91,0,0,1,1.93-1.93,1.93,1.93,0,0,1,1.37.54,1.8,1.8,0,0,1,.56,1.34,1.94,1.94,0,0,1-3.3,1.39Zm.19,6.54h2.36v24.61h-2.36Z"/><path class="cls-18" d="M862.35,163a5.89,5.89,0,0,1-2.24,1.3,8.74,8.74,0,0,1-2.8.45,6.1,6.1,0,0,1-6.7-6.7V142h-4.53v-2h4.53v-5.38H853V140h7.83v2H853v15.85a5.19,5.19,0,0,0,1.15,3.65,4.41,4.41,0,0,0,3.42,1.25,5.43,5.43,0,0,0,3.82-1.37Z"/><path class="cls-18" d="M884.23,142.09c1.64,1.56,2.46,3.84,2.46,6.86v15.61h-2.27v-4.38a8.17,8.17,0,0,1-3.44,3.37,11.44,11.44,0,0,1-5.42,1.2,10,10,0,0,1-6.49-1.93,6.69,6.69,0,0,1-.19-10.07c1.47-1.27,3.8-1.91,7-1.91h8.44v-2a6.92,6.92,0,0,0-1.87-5.24,7.56,7.56,0,0,0-5.44-1.79,13,13,0,0,0-4.69.85,11.87,11.87,0,0,0-3.8,2.26l-1.18-1.69a13.07,13.07,0,0,1,4.43-2.57,16,16,0,0,1,5.43-.92C880.26,139.76,882.6,140.53,884.23,142.09ZM881.1,161.4a8.63,8.63,0,0,0,3.23-4.1v-4.62h-8.4q-3.63,0-5.25,1.32a4.41,4.41,0,0,0-1.63,3.63,4.57,4.57,0,0,0,1.79,3.8,8.11,8.11,0,0,0,5,1.39A9.29,9.29,0,0,0,881.1,161.4Z"/><path class="cls-18" d="M896.4,129.57h2.36v35H896.4Z"/><path class="cls-18" d="M431.1,466.31H412l-4.2,9.29h-2.59l15.19-33h2.4l15.19,33h-2.6Zm-.9-2-8.67-19.06-8.63,19.06Z"/><path class="cls-18" d="M475.14,475.6l0-28.24-13.82,23.86H460.1l-13.82-23.77V475.6h-2.36v-33h2l14.76,25.52,14.76-25.52h2l.05,33Z"/><path class="cls-18" d="M520.23,475.6l-.05-28.24-13.82,23.86h-1.18l-13.81-23.77V475.6H489v-33h2l14.76,25.52,14.76-25.52h2l0,33Z"/></g></g></svg>