<svg id="Layer_1" data-name="Layer 1" xmlns="http://www.w3.org/2000/svg" viewBox="0 0 50 50"><defs><style>.cls-1{fill:#bcbec0;}</style></defs><path class="cls-1" d="M15.88,45C34.43,45,44.57,29.6,44.57,16.28c0-.44,0-.87,0-1.31a20.14,20.14,0,0,0,5-5.22,20.09,20.09,0,0,1-5.79,1.59,10.07,10.07,0,0,0,4.43-5.58,19.85,19.85,0,0,1-6.4,2.45,10.09,10.09,0,0,0-17.44,6.92,9.79,9.79,0,0,0,.26,2.28A28.65,28.65,0,0,1,3.85,6.87,10.13,10.13,0,0,0,7,20.33a9.92,9.92,0,0,1-4.58-1.26v.13a10.11,10.11,0,0,0,8.09,9.88,10,10,0,0,1-4.55.18,10.13,10.13,0,0,0,9.42,7A20.23,20.23,0,0,1,2.83,40.58a21.18,21.18,0,0,1-2.4-.14A28.49,28.49,0,0,0,15.88,45"/></svg>