<svg id="Layer_1" data-name="Layer 1" xmlns="http://www.w3.org/2000/svg" viewBox="0 0 50 50"><defs><style>.cls-1{fill:#bcbec0;}</style></defs><path id="logo" class="cls-1" d="M43.16,11.37S38,7.29,31.8,6.82l-.55,1.11A22,22,0,0,1,42,13.63c-4.59-2.34-9.14-4.54-17-4.54s-12.45,2.2-17,4.54a22.44,22.44,0,0,1,10.78-5.7l-.55-1.11A23.75,23.75,0,0,0,6.81,11.37S1,19.8,0,36.37c5.86,6.76,14.77,6.81,14.77,6.81l1.85-2.48a22.85,22.85,0,0,1-9.81-6.61c3.67,2.78,9.24,5.68,18.19,5.68s14.5-2.89,18.19-5.68a22.85,22.85,0,0,1-9.81,6.61l1.85,2.48s8.91,0,14.77-6.81C49,19.8,43.16,11.37,43.16,11.37ZM17.58,31.82a4.29,4.29,0,0,1-4-4.55,4.29,4.29,0,0,1,4-4.54,4.28,4.28,0,0,1,4,4.54A4.29,4.29,0,0,1,17.58,31.82Zm14.78,0a4.3,4.3,0,0,1-4-4.55,4.29,4.29,0,0,1,4-4.54,4.28,4.28,0,0,1,4,4.54A4.29,4.29,0,0,1,32.36,31.82Z"/></svg>